<svg xmlns="http://www.w3.org/2000/svg" viewBox="0 0 264 64" width="264" height="64" role="img" aria-label="Taleward" xmlns:c2pa="http://c2pa.org/manifest"><metadata><c2pa:manifest>AAAWgmp1bWIAAAAeanVtZGMycGEAEQAQgAAAqgA4m3EDYzJwYQAAABZcanVtYgAAAEdqdW1kYzJtYQARABCAAACqADibcQN1cm46YzJwYTplNWZlNTUxZi1lZmY4LTRjNzctOGYzYy0yZjViNDgzODk4MTgAAAADl2p1bWIAAAApanVtZGMyYXMAEQAQgAAAqgA4m3EDYzJwYS5hc3NlcnRpb25zAAAAALxqdW1iAAAARGp1bWRjYm9yABEAEIAAAKoAOJtxE2MycGEuaW5ncmVkaWVudC52MwAAAAAYYzJzaAAggmIqjNAEtN5PBfByhK0AAABwY2JvcqNpZGM6Zm9ybWF0bWltYWdlL3N2Zyt4bWxqaW5zdGFuY2VJRHgseG1wOmlpZDoxMmVmYjUzZC1iZTNmLTRjYjItOTVmNS1iZmRkNjUzY2RhZjhscmVsYXRpb25zaGlwaHBhcmVudE9mAAAB4mp1bWIAAABBanVtZGNib3IAEQAQgAAAqgA4m3ETYzJwYS5hY3Rpb25zLnYyAAAAABhjMnNo/9MaZ9oCllAeZE4gCxpndAAAAZljYm9yomdhY3Rpb25zgqJmYWN0aW9ua2MycGEub3BlbmVkanBhcmFtZXRlcnOha2luZ3JlZGllbnRzgaJjdXJseC1zZWxmI2p1bWJmPWMycGEuYXNzZXJ0aW9ucy9jMnBhLmluZ3JlZGllbnQudjNkaGFzaFggtvj5YF8dG81542jD/EYU+xOYVX5cnnFK0nWM6rnu2XikZmFjdGlvbngdY29tLmFudGhyb3BpYy5jbGF1ZGUucHJvdmlkZWRqcGFyYW1ldGVyc6F4H2NvbS5hbnRocm9waWMub3JpZ2luLWNvbmZpZGVuY2VndW5rbm93bmtkZXNjcmlwdGlvbnhmQ2xhdWRlIHByb3ZpZGVkIHRoaXMgZmlsZSBhdCB0aGUgcmVxdWVzdCBvZiBhIHVzZXIgYW5kIG1heSBoYXZlIGNyZWF0ZWQgb3IgbW9kaWZpZWQgdGhlIGZpbGUgY29udGVudHMubXNvZnR3YXJlQWdlbnShZG5hbWVmQ2xhdWRlcmFsbEFjdGlvbnNJbmNsdWRlZPUAAADIanVtYgAAAEBqdW1kY2JvcgARABCAAACqADibcRNjMnBhLmhhc2guZGF0YQAAAAAYYzJzaMF8DQv8DtET0slofhWeyyUAAACAY2JvcqVjYWxnZnNoYTI1NmNwYWRNAAAAAAAAAAAAAAAAAGRoYXNoWCBRi+Bwkc1SA36r8mb+iaJQ63Lj9coqaWJH+u9gBq6ct2RuYW1lbmp1bWJmIG1hbmlmZXN0amV4Y2x1c2lvbnOBomVzdGFydBi1Zmxlbmd0aBkeBAAAAj5qdW1iAAAAJ2p1bWRjMmNsABEAEIAAAKoAOJtxA2MycGEuY2xhaW0udjIAAAACD2Nib3KlY2FsZ2ZzaGEyNTZpc2lnbmF0dXJleE1zZWxmI2p1bWJmPS9jMnBhL3VybjpjMnBhOmU1ZmU1NTFmLWVmZjgtNGM3Ny04ZjNjLTJmNWI0ODM4OTgxOC9jMnBhLnNpZ25hdHVyZWppbnN0YW5jZUlEeCx4bXA6aWlkOmJkMmEwOTY5LWU1MDEtNGFjZC1iZWFjLTQyMGM2M2Y0NGQ2ZnJjcmVhdGVkX2Fzc2VydGlvbnODomN1cmx4LXNlbGYjanVtYmY9YzJwYS5hc3NlcnRpb25zL2MycGEuaW5ncmVkaWVudC52M2RoYXNoWCC2+PlgXx0bzXnjaMP8RhT7E5hVflyecUrSdYzque7ZeKJjdXJseCpzZWxmI2p1bWJmPWMycGEuYXNzZXJ0aW9ucy9jMnBhLmFjdGlvbnMudjJkaGFzaFgg/PAXzJq5c9zvTf2Gs+ieUFxGYiM9/+oh7KYqtsG4ouSiY3VybHgpc2VsZiNqdW1iZj1jMnBhLmFzc2VydGlvbnMvYzJwYS5oYXNoLmRhdGFkaGFzaFggLtaRisaxDu6pulVK4zcn8TnyNJUrMBow5FZChDLCGsN0Y2xhaW1fZ2VuZXJhdG9yX2luZm+jZG5hbWVvQW50aHJvcGljIEZpbGVzZ3ZlcnNpb25lMS4wLjBrc3BlY1ZlcnNpb25lMi40LjAAABA4anVtYgAAAChqdW1kYzJjcwARABCAAACqADibcQNjMnBhLnNpZ25hdHVyZQAAABAIY2JvctKEWQISogEmGCFZAgowggIGMIIBjaADAgECAhRA5aAK7sI50L64g/oGQgU9Z1UTADAKBggqhkjOPQQDAzBJMRcwFQYDVQQKEw5BbnRocm9waWMsIFBCQzEuMCwGA1UEAxMlQW50aHJvcGljIENvbnRlbnQgQ3JlZGVudGlhbHMgUm9vdCBDQTAeFw0yNjA4MDcxODQzNTZaFw0yODA4MDYxOTQzNTZaMEQxFzAVBgNVBAoTDkFudGhyb3BpYywgUEJDMSkwJwYDVQQDEyBBbnRocm9waWMgQ2xhdWRlIENvbnRlbnQgU2lnbmluZzBZMBMGByqGSM49AgEGCCqGSM49AwEHA0IABJh6CmvLUBgFFNU0vUKlOVtE6djd17L5SuwX0LemFisBM3dkd/3cyjxFA3Qo5S46fX0/ihY0VZ7mfb9KF703t5OjWDBWMA4GA1UdDwEB/wQEAwIHgDAVBgNVHSUEDjAMBgorBgEEAYPoXgIBMAwGA1UdEwEB/wQCMAAwHwYDVR0jBBgwFoAUzlHiBIFOZFsj+OPEz5o+nMHXXMIwCgYIKoZIzj0EAwMDZwAwZAIwMXMdFJ4BetLLVY7ORuE9noqbbAZOZn/aArXyTwFAZfKrPzxF2vPoJNf1+UCdg1XGAjBwX1zd9WGqYkqmL5SFqw1QySjr1zJfpJM9+1rdDwSPLMOPOjKuiXjoU/pUUeG9RwmhY3BhZFkNngAAAAAAAAAAAAAAAAAAAAAAAAAAAAAAAAAAAAAAAAAAAAAAAAAAAAAAAAAAAAAAAAAAAAAAAAAAAAAAAAAAAAAAAAAAAAAAAAAAAAAAAAAAAAAAAAAAAAAAAAAAAAAAAAAAAAAAAAAAAAAAAAAAAAAAAAAAAAAAAAAAAAAAAAAAAAAAAAAAAAAAAAAAAAAAAAAAAAAAAAAAAAAAAAAAAAAAAAAAAAAAAAAAAAAAAAAAAAAAAAAAAAAAAAAAAAAAAAAAAAAAAAAAAAAAAAAAAAAAAAAAAAAAAAAAAAAAAAAAAAAAAAAAAAAAAAAAAAAAAAAAAAAAAAAAAAAAAAAAAAAAAAAAAAAAAAAAAAAAAAAAAAAAAAAAAAAAAAAAAAAAAAAAAAAAAAAAAAAAAAAAAAAAAAAAAAAAAAAAAAAAAAAAAAAAAAAAAAAAAAAAAAAAAAAAAAAAAAAAAAAAAAAAAAAAAAAAAAAAAAAAAAAAAAAAAAAAAAAAAAAAAAAAAAAAAAAAAAAAAAAAAAAAAAAAAAAAAAAAAAAAAAAAAAAAAAAAAAAAAAAAAAAAAAAAAAAAAAAAAAAAAAAAAAAAAAAAAAAAAAAAAAAAAAAAAAAAAAAAAAAAAAAAAAAAAAAAAAAAAAAAAAAAAAAAAAAAAAAAAAAAAAAAAAAAAAAAAAAAAAAAAAAAAAAAAAAAAAAAAAAAAAAAAAAAAAAAAAAAAAAAAAAAAAAAAAAAAAAAAAAAAAAAAAAAAAAAAAAAAAAAAAAAAAAAAAAAAAAAAAAAAAAAAAAAAAAAAAAAAAAAAAAAAAAAAAAAAAAAAAAAAAAAAAAAAAAAAAAAAAAAAAAAAAAAAAAAAAAAAAAAAAAAAAAAAAAAAAAAAAAAAAAAAAAAAAAAAAAAAAAAAAAAAAAAAAAAAAAAAAAAAAAAAAAAAAAAAAAAAAAAAAAAAAAAAAAAAAAAAAAAAAAAAAAAAAAAAAAAAAAAAAAAAAAAAAAAAAAAAAAAAAAAAAAAAAAAAAAAAAAAAAAAAAAAAAAAAAAAAAAAAAAAAAAAAAAAAAAAAAAAAAAAAAAAAAAAAAAAAAAAAAAAAAAAAAAAAAAAAAAAAAAAAAAAAAAAAAAAAAAAAAAAAAAAAAAAAAAAAAAAAAAAAAAAAAAAAAAAAAAAAAAAAAAAAAAAAAAAAAAAAAAAAAAAAAAAAAAAAAAAAAAAAAAAAAAAAAAAAAAAAAAAAAAAAAAAAAAAAAAAAAAAAAAAAAAAAAAAAAAAAAAAAAAAAAAAAAAAAAAAAAAAAAAAAAAAAAAAAAAAAAAAAAAAAAAAAAAAAAAAAAAAAAAAAAAAAAAAAAAAAAAAAAAAAAAAAAAAAAAAAAAAAAAAAAAAAAAAAAAAAAAAAAAAAAAAAAAAAAAAAAAAAAAAAAAAAAAAAAAAAAAAAAAAAAAAAAAAAAAAAAAAAAAAAAAAAAAAAAAAAAAAAAAAAAAAAAAAAAAAAAAAAAAAAAAAAAAAAAAAAAAAAAAAAAAAAAAAAAAAAAAAAAAAAAAAAAAAAAAAAAAAAAAAAAAAAAAAAAAAAAAAAAAAAAAAAAAAAAAAAAAAAAAAAAAAAAAAAAAAAAAAAAAAAAAAAAAAAAAAAAAAAAAAAAAAAAAAAAAAAAAAAAAAAAAAAAAAAAAAAAAAAAAAAAAAAAAAAAAAAAAAAAAAAAAAAAAAAAAAAAAAAAAAAAAAAAAAAAAAAAAAAAAAAAAAAAAAAAAAAAAAAAAAAAAAAAAAAAAAAAAAAAAAAAAAAAAAAAAAAAAAAAAAAAAAAAAAAAAAAAAAAAAAAAAAAAAAAAAAAAAAAAAAAAAAAAAAAAAAAAAAAAAAAAAAAAAAAAAAAAAAAAAAAAAAAAAAAAAAAAAAAAAAAAAAAAAAAAAAAAAAAAAAAAAAAAAAAAAAAAAAAAAAAAAAAAAAAAAAAAAAAAAAAAAAAAAAAAAAAAAAAAAAAAAAAAAAAAAAAAAAAAAAAAAAAAAAAAAAAAAAAAAAAAAAAAAAAAAAAAAAAAAAAAAAAAAAAAAAAAAAAAAAAAAAAAAAAAAAAAAAAAAAAAAAAAAAAAAAAAAAAAAAAAAAAAAAAAAAAAAAAAAAAAAAAAAAAAAAAAAAAAAAAAAAAAAAAAAAAAAAAAAAAAAAAAAAAAAAAAAAAAAAAAAAAAAAAAAAAAAAAAAAAAAAAAAAAAAAAAAAAAAAAAAAAAAAAAAAAAAAAAAAAAAAAAAAAAAAAAAAAAAAAAAAAAAAAAAAAAAAAAAAAAAAAAAAAAAAAAAAAAAAAAAAAAAAAAAAAAAAAAAAAAAAAAAAAAAAAAAAAAAAAAAAAAAAAAAAAAAAAAAAAAAAAAAAAAAAAAAAAAAAAAAAAAAAAAAAAAAAAAAAAAAAAAAAAAAAAAAAAAAAAAAAAAAAAAAAAAAAAAAAAAAAAAAAAAAAAAAAAAAAAAAAAAAAAAAAAAAAAAAAAAAAAAAAAAAAAAAAAAAAAAAAAAAAAAAAAAAAAAAAAAAAAAAAAAAAAAAAAAAAAAAAAAAAAAAAAAAAAAAAAAAAAAAAAAAAAAAAAAAAAAAAAAAAAAAAAAAAAAAAAAAAAAAAAAAAAAAAAAAAAAAAAAAAAAAAAAAAAAAAAAAAAAAAAAAAAAAAAAAAAAAAAAAAAAAAAAAAAAAAAAAAAAAAAAAAAAAAAAAAAAAAAAAAAAAAAAAAAAAAAAAAAAAAAAAAAAAAAAAAAAAAAAAAAAAAAAAAAAAAAAAAAAAAAAAAAAAAAAAAAAAAAAAAAAAAAAAAAAAAAAAAAAAAAAAAAAAAAAAAAAAAAAAAAAAAAAAAAAAAAAAAAAAAAAAAAAAAAAAAAAAAAAAAAAAAAAAAAAAAAAAAAAAAAAAAAAAAAAAAAAAAAAAAAAAAAAAAAAAAAAAAAAAAAAAAAAAAAAAAAAAAAAAAAAAAAAAAAAAAAAAAAAAAAAAAAAAAAAAAAAAAAAAAAAAAAAAAAAAAAAAAAAAAAAAAAAAAAAAAAAAAAAAAAAAAAAAAAAAAAAAAAAAAAAAAAAAAAAAAAAAAAAAAAAAAAAAAAAAAAAAAAAAAAAAAAAAAAAAAAAAAAAAAAAAAAAAAAAAAAAAAAAAAAAAAAAAAAAAAAAAAAAAAAAAAAAAAAAAAAAAAAAAAAAAAAAAAAAAAAAAAAAAAAAAAAAAAAAAAAAAAAAAAAAAAAAAAAAAAAAAAAAAAAAAAAAAAAAAAAAAAAAAAAAAAAAAAAAAAAAAAAAAAAAAAAAAAAAAAAAAAAAAAAAAAAAAAAAAAAAAAAAAAAAAAAAAAAAAAAAAAAAAAAAAAAAAAAAAAAAAAAAAAAAAAAAAAAAAAAAAAAAAAAAAAAAAAAAAAAAAAAAAAAAAAAAAAAAAAAAAAAAAAAAAAAAAAAAAAAAAAAAAAAAAAAAAAAAAAAAAAAAAAAAAAAAAAAAAAAAAAAAAAAAAAAAAAAAAAAAAAAAAAAAAAAAAAAAAAAAAAAAAAAAAAAAAAAAAAAAAAAAAAAAAAAAAAAAAAAAAAAAAAAAAAAAAAAAAAAAAAAAAAAAAAAAAAAAAAAAAAAAAAAAAAAAAAAAAAAAAAAAAAAAAAAAAAAAAAAAAAAAAAAAAAAAAAAAAAAAAAAAAAAAAAAAAAAAAAAAAAAAAAAAAAAAAAAAAAAAAAAAAAAAAAAAAAAAAAAAAAAAAAAAAAAAAAAAAAAAAAAAAAAAAAAAAAAAAAAAAAAAAAAAAAAAAAAAAAAAAAAAAAAAAAAAAAAAAAAAAAAAAAAAAAAAAAAAAAAAAAAAAAAAAAAAAAAAAAAAAAAAAAAAAAAAAAAAAAAAAAAAAAAAAAAAAAAAAAAAAAAAAAAAAAAAAAAAAAAAAAAAAAAAAAAAAAAAAAAAAAAAAAAAAAAAAAAAAAAAAAAAAAAAAAAAAAAAAAAAAAAAAAAAAAAAAAAAAAAAAAAAAAAAAAAAAAAAAAAAAAAAAAAAAAAAAAAAAAAAAAAAAAAAAAAAAAAAAAAAAAAAAAAAAAAAAAAAAAAAAAAAAAAAAAAAAAAAAAAAAAAAAAAAAAAAAAAAAAAAAAAAAAAAAAAAAAAAAAAAAAAAAAAAAAAAAAAAAAAAAAAAAAAAAAAAAAAAAAAAAAAAAAAAAAAAAAAAAAAAAAAAAAAAAAAAAAAAAAAAAAAAAAAAAAAAAAAAAAAAAAAAAAAAAAAAAAAAAAAAAAAAAAAAAAAAAAAAAAAAAAAAAAAAAAAAAAAAAAAAAAAAAAAAAAAAAAAAAAAAAAAAAAAAAAAAAAAAAAAAAAAAAAAAAAAAAAAAAAAAAAAAAAAAAAAAAAAAAAAAAAAAAAAAAAAAAAAAAAAAAAAAAAAAAAAAAAAAAAAAAAAAAAAAAAAAAAAAAAAAAAAAAAAAAAAAAAAAAAAAAAAAAAAAAAAAAAAAAAAAAAAAAAAAAAAAAAAAAAAAAAAAAAAAAAAAAAAAAAAAAAAAAAAAAAAAAAAAAAAAAAAAAAAAAAAAAAAAAAAAAAAAAAAAAAAAAAAAAAAAAAAAAAAAAAAAAAAAAAAAAAAAAAAAAAAAAAAAAAAAAAAAAAAAAAAAAAAAAAAAAAAAAAAAAAAAAAAAAAAAAAAAAAAAAAAAAAAAAAAAAAAAAAAAAAAAAAAPZYQNZ5fWY7qQKcEvJv8gvTAc4CeiB83lUTP19ZJM3u5HWqRzXerb3O6sO5mv9HMX17Xhj1Z53R0W7gutHh/uW6ePk=</c2pa:manifest></metadata><title>Taleward</title><svg x="0" y="0" width="64" height="64" viewBox="203 217 2100 2100"><g transform="translate(0.000000,2508.000000) scale(0.100000,-0.100000)"><path fill="#f3f3ee" d="M11437 22093 c-4 -3 -60 -10 -124 -15 -175 -12 -318 -26 -410 -37 -46 -6 -118 -15 -160 -20 -43 -5 -105 -14 -138 -20 -75 -13 -167 -28 -242 -40 -32 -5 -116 -21 -188 -35 -71 -14 -192 -37 -267 -51 -225 -43 -684 -171 -918 -255 -63 -23 -164 -58 -225 -79 -285 -99 -836 -339 -1035 -451 -19 -11 -89 -48 -155 -81 -122 -63 -412 -234 -540 -318 -38 -26 -104 -67 -145 -91 -199 -117 -749 -530 -991 -744 -25 -23 -95 -84 -155 -136 -117 -102 -544 -527 -710 -706 -88 -95 -174 -195 -352 -407 -121 -145 -467 -615 -520 -707 -14 -25 -56 -91 -93 -146 -104 -156 -214 -341 -329 -554 -31 -58 -75 -136 -96 -175 -42 -73 -226 -452 -312 -640 -182 -396 -256 -689 -288 -1140 -17 -250 -23 -6747 -6 -6980 36 -481 185 -867 493 -1279 228 -303 533 -548 932 -748 160 -80 212 -102 457 -193 69 -26 160 -60 204 -76 112 -42 758 -201 1006 -248 58 -11 166 -32 240 -46 74 -15 162 -31 195 -36 33 -5 85 -14 115 -19 148 -25 190 -32 250 -40 36 -5 94 -14 130 -20 36 -6 94 -15 130 -20 36 -5 94 -14 130 -20 36 -6 99 -15 140 -20 98 -12 199 -26 280 -40 81 -14 182 -28 280 -40 265 -31 982 -185 1265 -272 417 -127 754 -271 1060 -453 202 -121 464 -326 544 -426 68 -85 249 -269 265 -269 25 0 28 35 22 246 -6 241 -16 342 -45 454 -186 724 -890 1248 -2026 1509 -269 62 -311 70 -657 131 -62 11 -146 24 -186 30 -154 22 -219 32 -259 41 -23 5 -60 9 -83 9 -23 0 -60 4 -83 9 -23 5 -76 14 -117 21 -41 6 -103 15 -137 20 -35 6 -91 14 -125 20 -35 5 -97 14 -138 20 -41 7 -95 15 -120 20 -46 9 -136 22 -262 40 -190 27 -553 95 -943 176 -451 94 -976 273 -1210 412 -55 33 -120 71 -145 85 -25 14 -79 53 -120 87 -365 302 -559 642 -649 1136 -20 111 -15 7228 5 7290 36 106 94 144 168 109 35 -17 92 -96 149 -210 35 -71 157 -269 171 -277 6 -4 23 -8 38 -8 42 0 58 42 88 230 19 115 39 216 65 320 12 52 26 113 30 135 16 95 184 576 278 796 52 120 154 327 202 409 18 30 61 105 97 165 36 61 73 126 83 145 10 19 44 69 75 110 31 41 76 104 100 140 52 77 245 327 327 422 32 37 90 105 130 150 140 163 638 642 814 784 47 38 107 88 135 111 129 111 488 363 714 500 63 38 153 93 200 122 47 29 107 62 134 73 27 10 61 27 75 37 48 34 445 230 586 289 279 117 512 200 805 287 69 21 166 50 215 65 114 35 420 107 550 130 39 7 135 25 215 40 80 15 179 33 220 40 453 72 757 255 990 596 69 101 154 304 169 405 6 35 13 80 17 100 8 45 -17 102 -52 118 -26 12 -216 16 -227 4z M13413 22089 c-33 -17 -57 -74 -49 -118 4 -20 11 -65 17 -100 33 -221 208 -510 409 -677 220 -182 432 -274 750 -324 41 -7 140 -25 220 -40 80 -15 177 -33 215 -40 130 -23 436 -95 550 -130 50 -15 146 -44 215 -65 223 -66 345 -107 595 -202 220 -83 710 -313 796 -374 14 -10 48 -27 75 -37 27 -11 87 -44 134 -73 47 -29 137 -84 200 -122 226 -137 585 -389 714 -500 28 -23 88 -73 135 -111 176 -142 674 -621 814 -784 40 -45 98 -113 130 -150 82 -95 275 -345 327 -422 24 -36 69 -99 100 -140 31 -41 65 -91 75 -110 10 -19 47 -84 83 -145 36 -60 79 -135 97 -165 48 -82 150 -289 202 -409 94 -220 262 -701 278 -796 4 -22 18 -83 30 -135 26 -104 46 -205 65 -320 30 -188 46 -230 88 -230 15 0 32 4 38 8 14 8 136 206 171 277 57 114 114 193 149 210 74 35 132 -3 168 -109 20 -62 25 -7179 5 -7290 -90 -494 -284 -834 -649 -1136 -41 -34 -95 -73 -120 -87 -25 -14 -90 -52 -145 -85 -234 -139 -759 -318 -1210 -412 -390 -81 -753 -149 -942 -176 -127 -18 -217 -31 -263 -40 -25 -5 -79 -13 -120 -20 -41 -6 -103 -15 -137 -20 -35 -6 -91 -14 -125 -20 -35 -5 -97 -14 -138 -20 -41 -7 -94 -16 -117 -21 -23 -5 -60 -9 -83 -9 -23 0 -60 -4 -83 -9 -40 -9 -105 -19 -259 -41 -40 -6 -125 -20 -188 -31 -355 -62 -385 -68 -655 -130 -1136 -261 -1840 -785 -2026 -1509 -29 -112 -39 -213 -45 -454 -6 -211 -3 -246 22 -246 16 0 197 184 265 269 80 100 342 305 544 426 306 182 643 326 1060 453 283 87 1000 241 1265 272 98 12 199 26 280 40 81 14 182 28 280 40 41 5 104 14 140 20 36 6 94 15 130 20 36 5 94 14 130 20 36 6 94 15 130 20 36 5 92 14 125 19 72 12 170 28 245 41 30 4 116 20 190 35 74 14 182 35 240 46 248 47 894 206 1006 248 44 16 135 50 204 76 245 91 297 113 457 193 399 200 704 445 932 748 308 412 457 798 493 1279 17 233 11 6730 -6 6980 -32 451 -106 744 -288 1140 -86 188 -270 567 -312 640 -21 39 -65 117 -96 175 -115 213 -225 398 -329 554 -37 55 -79 121 -93 146 -53 92 -399 562 -520 707 -178 212 -264 312 -352 407 -166 179 -593 604 -710 706 -60 52 -130 113 -155 136 -242 214 -792 627 -991 744 -41 24 -106 65 -145 91 -128 84 -418 255 -540 318 -66 33 -136 70 -155 81 -199 112 -750 352 -1035 451 -60 21 -162 56 -225 79 -234 84 -693 212 -918 255 -75 14 -195 37 -267 51 -71 14 -156 30 -187 35 -58 9 -117 19 -238 39 -36 6 -100 16 -142 21 -43 5 -115 14 -160 20 -46 5 -132 14 -193 20 -60 5 -157 14 -215 19 -182 17 -333 21 -357 9z M6046 17485 c-19 -19 -15 -30 43 -122 25 -39 62 -100 81 -134 19 -35 62 -104 94 -154 32 -49 89 -139 126 -200 37 -60 90 -147 118 -192 29 -46 75 -120 104 -165 28 -46 79 -130 114 -188 34 -58 95 -157 135 -220 39 -63 95 -151 122 -195 28 -44 61 -97 74 -118 34 -54 78 -79 130 -74 39 4 52 15 184 152 209 215 359 330 569 435 173 87 411 169 578 199 239 43 269 45 592 45 335 0 406 -6 640 -51 434 -83 848 -290 1100 -550 353 -362 494 -656 553 -1153 12 -100 12 -1 2 -5465 l-5 -2899 56 -54 c266 -251 751 -454 1084 -454 333 0 818 203 1084 454 l56 54 -5 2899 c-10 5464 -10 5365 2 5465 49 415 168 709 397 985 344 413 787 649 1401 744 142 22 206 25 495 25 323 0 353 -2 593 -45 166 -30 404 -112 577 -199 210 -105 360 -220 569 -435 132 -137 145 -148 184 -152 52 -5 96 20 130 74 13 21 46 74 74 118 27 44 83 132 122 195 40 63 101 162 135 220 35 58 86 142 114 188 29 45 75 119 104 165 28 45 81 132 118 192 37 61 94 151 126 200 32 50 75 119 94 154 19 34 56 95 81 134 58 92 62 103 43 122 -24 23 -12964 23 -12988 0z M4459 15004 c-15 -19 -21 -2640 -6 -2774 19 -162 76 -461 109 -568 49 -160 116 -307 264 -577 217 -397 663 -830 1154 -1122 246 -146 273 -161 325 -181 28 -11 99 -45 158 -76 60 -30 145 -69 190 -86 45 -17 150 -60 232 -95 83 -35 281 -113 440 -174 160 -60 340 -130 400 -155 61 -25 155 -63 210 -85 276 -109 479 -205 840 -398 529 -282 1214 -834 1525 -1228 35 -44 78 -96 96 -115 33 -36 135 -175 155 -211 6 -12 33 -51 59 -88 71 -96 233 -369 266 -448 78 -184 112 -226 134 -167 13 34 6 1041 -9 1204 -22 247 -30 317 -41 380 -6 36 -15 99 -20 140 -38 330 -236 1117 -368 1465 -69 182 -123 313 -177 435 -26 58 -58 132 -72 164 -53 126 -170 347 -347 651 -47 81 -194 302 -263 394 -109 145 -208 271 -276 351 -115 136 -444 466 -537 538 -47 37 -142 115 -213 173 -199 167 -568 418 -753 513 -49 26 -127 69 -174 96 -88 52 -148 82 -360 180 -257 119 -348 160 -450 204 -58 24 -152 66 -210 91 -58 26 -149 64 -202 86 -101 40 -722 347 -818 404 -30 18 -95 56 -145 85 -49 29 -119 74 -155 100 -36 26 -87 62 -115 80 -249 168 -530 451 -706 713 -79 118 -108 139 -140 101z M20553 15008 c-6 -7 -43 -60 -81 -118 -167 -248 -452 -535 -697 -700 -27 -18 -79 -54 -115 -80 -36 -26 -105 -71 -155 -100 -49 -29 -115 -67 -145 -85 -96 -57 -717 -364 -818 -404 -53 -22 -144 -60 -202 -86 -58 -25 -152 -67 -210 -91 -102 -44 -193 -85 -450 -204 -212 -98 -272 -128 -360 -180 -47 -27 -125 -70 -174 -96 -185 -95 -554 -346 -753 -513 -71 -58 -166 -136 -213 -173 -93 -72 -422 -402 -537 -538 -68 -80 -167 -206 -276 -351 -69 -92 -216 -313 -263 -394 -177 -304 -294 -525 -347 -651 -14 -32 -46 -106 -72 -164 -54 -122 -108 -253 -177 -435 -132 -348 -330 -1135 -368 -1465 -5 -41 -14 -104 -20 -140 -11 -63 -19 -133 -41 -380 -15 -163 -22 -1170 -9 -1204 22 -59 56 -17 134 167 33 79 195 352 266 448 26 37 53 76 59 88 20 36 122 175 155 211 18 19 61 71 96 115 311 394 996 946 1525 1228 361 193 564 289 840 398 55 22 150 60 210 85 61 25 241 95 400 155 160 61 358 139 440 174 83 35 187 78 232 95 45 17 130 56 190 86 59 31 130 65 158 76 52 20 79 35 325 181 491 292 937 725 1154 1122 242 442 313 657 368 1105 17 135 21 2768 5 2800 -14 28 -58 39 -74 18z M4305 11088 c-19 -80 8 -2243 30 -2343 3 -16 13 -68 22 -115 51 -274 211 -585 407 -789 268 -279 733 -515 1276 -650 107 -27 267 -63 355 -79 88 -17 198 -38 245 -47 47 -9 110 -21 140 -25 30 -5 84 -14 120 -20 36 -6 99 -15 140 -20 41 -5 108 -14 148 -20 39 -5 105 -15 145 -20 70 -11 145 -20 305 -39 42 -5 106 -15 142 -21 36 -6 94 -15 130 -20 36 -5 94 -14 130 -20 140 -23 187 -31 240 -40 30 -4 93 -16 140 -25 47 -9 132 -25 190 -36 271 -51 743 -176 935 -248 44 -17 125 -47 180 -67 119 -43 407 -186 508 -251 300 -193 313 -204 597 -480 86 -84 162 -153 169 -153 28 0 4 127 -73 385 -38 128 -148 367 -242 530 -26 44 -63 110 -84 146 -34 61 -134 205 -238 344 -195 259 -495 559 -757 756 -119 90 -388 280 -419 296 -17 9 -78 44 -136 78 -199 119 -375 209 -725 374 -232 109 -728 302 -1095 427 -303 102 -759 272 -900 334 -294 130 -328 146 -565 276 -88 49 -254 159 -405 270 -149 109 -473 443 -591 610 -149 210 -168 238 -220 334 -76 139 -97 181 -134 265 -51 113 -97 156 -110 103z M20722 11087 c-12 -12 -37 -58 -57 -102 -37 -84 -58 -126 -134 -265 -52 -96 -71 -124 -220 -334 -118 -167 -442 -501 -591 -610 -151 -111 -317 -221 -405 -270 -237 -130 -271 -146 -565 -276 -141 -62 -597 -232 -900 -334 -715 -243 -1353 -524 -1820 -801 -58 -34 -119 -69 -136 -78 -31 -16 -300 -206 -419 -296 -262 -197 -562 -497 -757 -756 -104 -139 -204 -283 -238 -344 -21 -36 -58 -102 -84 -146 -94 -163 -204 -402 -242 -530 -77 -258 -101 -385 -73 -385 7 0 83 69 169 153 284 276 297 287 597 480 101 65 389 208 508 251 55 20 136 50 180 67 192 72 664 197 935 248 58 11 143 27 190 36 47 9 110 21 140 25 53 9 100 17 240 40 36 6 94 15 130 20 36 5 94 14 130 20 36 6 100 16 143 21 159 19 234 28 305 39 39 5 105 15 145 20 39 6 106 15 147 20 41 5 102 13 135 19 33 6 87 15 120 20 33 5 98 17 145 26 47 9 157 30 245 47 433 82 787 195 1089 346 287 143 516 326 675 542 117 158 238 437 274 630 9 47 19 99 22 115 22 100 49 2263 30 2343 -7 28 -26 28 -53 -1z"/><path fill="#d4596c" d="M11491 5971 c-8 -14 -11 -395 -11 -1227 0 -1208 0 -1208 49 -1255 27 -26 147 -122 268 -213 120 -92 281 -215 358 -276 290 -226 363 -280 385 -280 22 0 95 54 385 280 77 61 238 184 358 276 121 91 241 187 268 213 49 47 49 47 49 1257 0 1018 -2 1213 -14 1229 -13 19 -16 18 -72 -12 -472 -255 -677 -323 -974 -323 -184 0 -252 12 -485 87 -80 26 -351 156 -455 218 -76 46 -96 51 -109 26z"/></g></svg><path fill="#f3f3ee" d="M82.646 50.322 83.014 46.78Q84.946 46.596000000000004 85.912 46.251000000000005Q86.878 45.906 87.223 45.009Q87.568 44.112 87.568 42.364V24.792Q86.096 24.838 85.245 25.045Q84.394 25.252 83.911 25.872999999999998Q83.428 26.494 83.175 27.689999999999998Q82.922 28.886 82.738 30.91L78.138 31.232Q78.23 29.53 78.322 27.575000000000003Q78.414 25.62 78.506 23.734Q78.598 21.848 78.598 20.422L79.15 19.87L84.118 20.376H98.47L103.576 19.87L104.082 20.422Q104.128 22.262 104.174 24.217Q104.22 26.172 104.312 27.92Q104.404 29.668 104.45 30.91L99.85 31.232Q99.62 29.024 99.39 27.759Q99.16 26.494 98.723 25.872999999999998Q98.286 25.252 97.481 25.045Q96.676 24.838 95.25 24.792Q95.20400000000001 26.54 95.135 28.747999999999998Q95.066 30.956 95.02000000000001 33.463Q94.974 35.97 94.928 38.5Q94.882 41.03 94.882 43.33Q94.882 45.032 95.457 45.745Q96.032 46.458 97.366 46.458Q98.332 46.458 99.758 46.32L99.94200000000001 46.596000000000004L99.52799999999999 50.23Q98.194 50.138 96.53800000000001 50.114999999999995Q94.882 50.092 93.364 50.046Q91.846 50.0 90.972 50.0Q90.144 50.0 88.741 50.046Q87.338 50.092 85.728 50.161Q84.118 50.23 82.646 50.322Z M121.102 50.552Q118.98599999999999 50.552 117.721 49.655Q116.456 48.758 116.27199999999999 47.102L115.812 46.918Q114.984 47.746 114.041 48.551Q113.098 49.356 112.247 49.862Q111.396 50.368 110.706 50.368Q108.91199999999999 50.368 107.417 49.425Q105.922 48.482 105.071 46.849000000000004Q104.22 45.216 104.22 43.192Q104.22 41.72 105.002 40.638999999999996Q105.78399999999999 39.558 107.026 39.282L115.95 37.396V36.752Q115.95 34.958 114.938 33.969Q113.926 32.980000000000004 112.086 32.980000000000004Q110.798 32.980000000000004 109.303 33.624Q107.80799999999999 34.268 106.75 35.05L106.28999999999999 34.82L105.324 31.646Q106.79599999999999 30.864 108.544 30.012999999999998Q110.292 29.162 111.87899999999999 28.587Q113.466 28.012 114.24799999999999 28.012Q117.33 28.012 119.14699999999999 28.909Q120.964 29.806 121.769 31.255000000000003Q122.574 32.704 122.574 34.452Q122.574 35.05 122.436 36.245999999999995Q122.298 37.442 122.114 38.845Q121.92999999999999 40.248 121.769 41.467Q121.608 42.686 121.608 43.33Q121.608 44.112 122.02199999999999 44.595Q122.43599999999999 45.078 123.126 45.078Q123.632 45.078 124.184 44.871Q124.73599999999999 44.664 125.05799999999999 44.480000000000004L125.794 45.538Q125.24199999999999 46.504 124.46 47.608000000000004Q123.678 48.712 122.804 49.517Q121.92999999999999 50.322 121.102 50.552ZM112.914 45.308Q113.512 45.308 114.31700000000001 45.055Q115.122 44.802 115.76599999999999 44.434L115.858 40.294L111.672 41.352000000000004Q110.66 41.628 110.66 42.64Q110.66 43.79 111.281 44.549Q111.902 45.308 112.914 45.308Z M126.392 50.322 126.806 47.01Q127.772 46.826 128.209 46.481Q128.64600000000002 46.136 128.784 45.492000000000004Q128.922 44.848 128.922 43.836V23.136Q128.922 21.94 128.715 21.388Q128.508 20.836000000000002 127.84100000000001 20.675Q127.174 20.514 125.794 20.560000000000002L125.56400000000001 20.284L125.886 17.432000000000002Q128.554 17.11 131.222 16.719Q133.89000000000001 16.328000000000003 136.558 15.868000000000002L136.926 16.880000000000003Q136.65 17.662 136.397 19.341Q136.144 21.02 135.96 23.481Q135.776 25.942 135.638 29.185Q135.5 32.428 135.454 36.384Q135.40800000000002 40.34 135.40800000000002 44.986Q135.40800000000002 45.998 135.68400000000003 46.388999999999996Q135.96 46.78 136.604 46.78L138.122 46.734L138.26 47.01L137.754 50.184Q136.282 50.092 134.649 50.046Q133.016 50.0 131.866 50.0Q130.854 50.0 129.359 50.092Q127.864 50.184 126.392 50.322Z M150.266 50.552Q146.90800000000002 50.552 144.47000000000003 49.263999999999996Q142.032 47.976 140.767 45.538Q139.502 43.1 139.502 39.696Q139.502 37.166 140.30700000000002 35.027Q141.112 32.888000000000005 142.63 31.324000000000005Q144.148 29.76 146.195 28.886000000000003Q148.242 28.012 150.726 28.012Q158.914 28.012 158.914 36.43Q158.914 37.212 158.79899999999998 37.994Q158.684 38.775999999999996 158.592 39.236000000000004L158.04 39.742000000000004H146.586Q146.724 42.456 148.058 43.905Q149.392 45.354 151.761 45.423Q154.13 45.492 157.304 44.066L157.718 44.25L158.546 47.01Q157.58 47.746 156.13100000000003 48.574Q154.68200000000002 49.402 153.14100000000002 49.977000000000004Q151.6 50.552 150.266 50.552ZM146.494 36.798 151.692 36.476Q152.152 36.384 152.29 36.223Q152.428 36.062 152.428 35.51Q152.428 33.9 151.80700000000002 33.095Q151.186 32.29 149.944 32.29Q148.38 32.29 147.506 33.394000000000005Q146.632 34.498000000000005 146.494 36.798Z M166.826 50.644Q166.826 50.644 166.57299999999998 49.678Q166.32 48.712 165.906 47.102000000000004Q165.49200000000002 45.492 165.00900000000001 43.629Q164.526 41.766 164.043 39.879999999999995Q163.56 37.994 163.14600000000002 36.498999999999995Q162.732 35.004 162.502 34.176Q161.76600000000002 31.922 159.788 31.876L159.696 31.646L160.018 28.472Q160.018 28.472 160.823 28.495Q161.62800000000001 28.518 162.709 28.541Q163.79 28.564 164.618 28.564Q166.18200000000002 28.564 167.70000000000002 28.472Q169.21800000000002 28.38 170.207 28.311Q171.196 28.242 171.196 28.242L171.288 28.472L170.874 31.738Q169.54000000000002 31.922 169.21800000000002 32.106Q168.89600000000002 32.29 168.89600000000002 32.934Q168.89600000000002 33.21 169.05700000000002 34.153000000000006Q169.21800000000002 35.096000000000004 169.471 36.384Q169.72400000000002 37.672 170.02300000000002 39.028999999999996Q170.322 40.386 170.575 41.536Q170.828 42.686 170.989 43.422Q171.15 44.158 171.15 44.158H171.74800000000002Q171.978 43.606 172.346 42.456Q172.714 41.306 173.128 39.879999999999995Q173.542 38.454 173.933 37.074Q174.324 35.694 174.60000000000002 34.682Q174.876 33.67 174.96800000000002 33.302Q174.83 32.474000000000004 174.39300000000003 32.198Q173.95600000000002 31.922 172.76 31.922L172.622 31.646L173.036 28.472Q173.036 28.472 173.81799999999998 28.495Q174.6 28.518 175.68099999999998 28.541Q176.762 28.564 177.59 28.564Q179.154 28.564 180.626 28.472Q182.098 28.38 183.041 28.334Q183.984 28.288 183.984 28.288L184.076 28.518L183.616 31.738Q182.282 31.922 181.96 32.106Q181.638 32.29 181.638 32.934Q181.638 33.21 181.799 34.153000000000006Q181.96 35.096000000000004 182.236 36.361000000000004Q182.512 37.626 182.788 39.006Q183.06400000000002 40.386 183.34000000000003 41.536Q183.616 42.686 183.77700000000002 43.422Q183.93800000000002 44.158 183.93800000000002 44.158H184.536Q185.502 41.26 186.26100000000002 38.822Q187.02 36.384 187.457 34.774Q187.894 33.164 187.894 32.75Q187.894 32.198 187.64100000000002 32.06Q187.388 31.922 186.65200000000002 31.922H185.594L185.41 31.6L185.824 28.472Q185.824 28.472 186.675 28.495Q187.526 28.518 188.699 28.541Q189.872 28.564 190.88400000000001 28.564Q191.85 28.564 192.862 28.541Q193.874 28.518 194.56400000000002 28.518Q195.25400000000002 28.518 195.25400000000002 28.518L194.886 31.876Q193.828 32.013999999999996 193.437 32.428Q193.046 32.842 192.586 34.176L187.296 50.0L179.936 50.644Q179.798 49.862 179.54500000000002 48.666Q179.292 47.47 178.993 46.067Q178.69400000000002 44.664 178.34900000000002 43.169Q178.00400000000002 41.674 177.68200000000002 40.202H177.038L174.37 50.0Z M212.136 50.552Q210.02 50.552 208.755 49.655Q207.49 48.758 207.306 47.102L206.846 46.918Q206.018 47.746 205.075 48.551Q204.132 49.356 203.281 49.862Q202.43 50.368 201.74 50.368Q199.946 50.368 198.45100000000002 49.425Q196.95600000000002 48.482 196.10500000000002 46.849000000000004Q195.254 45.216 195.254 43.192Q195.254 41.72 196.036 40.638999999999996Q196.818 39.558 198.06 39.282L206.984 37.396V36.752Q206.984 34.958 205.972 33.969Q204.96 32.980000000000004 203.12 32.980000000000004Q201.832 32.980000000000004 200.337 33.624Q198.842 34.268 197.784 35.05L197.324 34.82L196.358 31.646Q197.83 30.864 199.578 30.012999999999998Q201.326 29.162 202.913 28.587Q204.5 28.012 205.282 28.012Q208.364 28.012 210.18099999999998 28.909Q211.998 29.806 212.803 31.255000000000003Q213.608 32.704 213.608 34.452Q213.608 35.05 213.47 36.245999999999995Q213.332 37.442 213.148 38.845Q212.964 40.248 212.803 41.467Q212.642 42.686 212.642 43.33Q212.642 44.112 213.05599999999998 44.595Q213.47 45.078 214.16 45.078Q214.666 45.078 215.21800000000002 44.871Q215.77 44.664 216.092 44.480000000000004L216.828 45.538Q216.276 46.504 215.494 47.608000000000004Q214.712 48.712 213.838 49.517Q212.964 50.322 212.136 50.552ZM203.948 45.308Q204.546 45.308 205.351 45.055Q206.156 44.802 206.8 44.434L206.892 40.294L202.70600000000002 41.352000000000004Q201.69400000000002 41.628 201.69400000000002 42.64Q201.69400000000002 43.79 202.315 44.549Q202.936 45.308 203.948 45.308Z M218.622 46.872Q219.95600000000002 46.78 220.46200000000002 46.182Q220.96800000000002 45.584 220.96800000000002 44.066V35.418Q220.96800000000002 33.808 220.55400000000003 33.256Q220.14000000000001 32.704 218.898 32.704Q218.668 32.704 218.36900000000003 32.727000000000004Q218.07000000000002 32.75 218.07000000000002 32.75L217.84 32.428L218.162 29.622Q220.46200000000002 29.254 222.62400000000002 28.886000000000003Q224.786 28.518 226.18900000000002 28.265Q227.592 28.012 227.592 28.012L228.098 28.472Q228.098 28.472 227.983 29.093Q227.868 29.714 227.753 30.657Q227.638 31.6 227.54600000000002 32.566L227.868 32.75Q229.386 30.588 231.019 29.484Q232.65200000000002 28.38 234.354 28.38Q234.99800000000002 28.38 235.50400000000002 28.472Q236.01000000000002 28.564 236.01000000000002 28.564L236.19400000000002 28.978Q236.19400000000002 28.978 236.079 29.829Q235.964 30.68 235.78 32.06Q235.596 33.44 235.435 35.073Q235.274 36.706 235.18200000000002 38.269999999999996L231.64000000000001 38.5Q231.64000000000001 36.108000000000004 231.387 35.349000000000004Q231.13400000000001 34.59 230.306 34.59Q229.708 34.59 229.041 34.958Q228.374 35.326 227.822 36.062Q227.822 36.062 227.776 36.867Q227.73000000000002 37.672 227.661 38.867999999999995Q227.592 40.064 227.52300000000002 41.306Q227.454 42.548 227.40800000000002 43.491Q227.362 44.434 227.362 44.664Q227.362 45.676 227.73000000000002 46.09Q228.098 46.504 228.972 46.504Q229.662 46.504 230.536 46.412Q231.41 46.32 231.41 46.32L231.594 46.642L231.042 50.23Q231.042 50.23 230.352 50.184Q229.662 50.138 228.627 50.114999999999995Q227.592 50.092 226.442 50.046Q225.292 50.0 224.418 50.0Q222.99200000000002 50.0 221.543 50.046Q220.094 50.092 219.128 50.161Q218.162 50.23 218.162 50.23Z M256.02 50.552Q251.696 50.552 251.19 47.24L250.868 47.102Q248.798 48.712 247.464 49.540000000000006Q246.13 50.368 245.762 50.368Q243.048 50.368 241.09300000000002 49.126000000000005Q239.138 47.884 238.103 45.584Q237.068 43.284 237.068 40.11Q237.068 36.522 238.517 33.854Q239.966 31.186 242.611 29.691000000000003Q245.256 28.196 248.752 28.196Q249.258 28.196 249.74099999999999 28.196Q250.224 28.196 250.638 28.242V23.274Q250.638 21.756 250.224 21.204Q249.81 20.652 248.614 20.652Q248.338 20.652 247.92399999999998 20.698Q247.51 20.744 247.51 20.744L247.87800000000001 17.478Q249.71800000000002 17.247999999999998 251.53500000000003 16.971999999999998Q253.352 16.695999999999998 254.84699999999998 16.442999999999998Q256.342 16.189999999999998 257.262 16.029Q258.182 15.868000000000002 258.182 15.868000000000002L258.642 16.741999999999997Q258.366 17.156 258.13599999999997 18.674Q257.906 20.192 257.722 22.676000000000002Q257.538 25.16 257.4 28.380000000000003Q257.262 31.6 257.193 35.394999999999996Q257.124 39.19 257.124 43.33Q257.124 44.112 257.46900000000005 44.595Q257.814 45.078 258.412 45.078Q258.872 45.078 259.26300000000003 44.917Q259.654 44.756 259.93 44.618Q260.206 44.480000000000004 260.206 44.480000000000004L260.942 45.538Q260.942 45.538 260.574 46.159Q260.206 46.78 259.516 47.677Q258.826 48.574 257.929 49.379Q257.032 50.184 256.02 50.552ZM247.924 45.4Q248.476 45.4 248.982 45.239000000000004Q249.488 45.078 249.856 44.871Q250.224 44.664 250.43099999999998 44.503Q250.638 44.342 250.638 44.342V33.256Q250.638 33.256 249.856 32.934Q249.074 32.612 247.832 32.612Q246.038 32.612 245.09500000000003 34.061Q244.15200000000002 35.51 244.15200000000002 38.316Q244.15200000000002 40.57 244.61200000000002 42.157Q245.072 43.744 245.923 44.572Q246.774 45.4 247.924 45.4Z"/></svg>
